fact	= 2
    .byte E3, 8*fact
    .byte F3, 3*fact
    .byte G3, 5*fact
    .byte E3, 5*fact
    .byte C3, 6*fact
    .byte G2, 5*fact
    .byte C2, 5*fact
    .byte G2, 5*fact
    .byte G3, 6*fact
    .byte E3, 5*fact
    .byte A3, 5*fact
    .byte F3, 5*fact
    .byte C3, 6*fact
    .byte A2, 5*fact
    .byte C2, 5*fact
    .byte A2, 5*fact
    .byte F3, 6*fact
    .byte A3, 10*fact
    .byte G3, 6*fact
    .byte F3, 5*fact
    .byte E3, 10*fact
    .byte D3, 6*fact
    .byte C3, 5*fact
    .byte B3, 10*fact
    .byte C3, 6*fact
    .byte G2, 5*fact
    .byte E2, 5*fact
    .byte B2, 5*fact
    .byte D2, 5*fact
    .byte G3, 6*fact
    .byte F2, 2*fact
    .byte G3, 8*fact
    .byte A3, 3*fact
    .byte G3, 2*fact
    .byte F3, 6*fact
    .byte E3, 10*fact
    .byte D3, 6*fact
    .byte C3, 5*fact
    .byte B3, 10*fact
    .byte G2, 5*fact
    .byte C3, 6*fact
    .byte G2, 5*fact
    .byte C2, 5*fact
    .byte G2, 5*fact
    .byte C3, 6*fact
    .byte G2, 2*fact
    .byte D3, 3*fact
    .byte E3, 5*fact
    .byte C3, 5*fact
    .byte G3, 6*fact
    .byte E3, 5*fact
    .byte D3, 5*fact
    .byte G2, 6*fact
    .byte D2, 5*fact
    .byte G2, 5*fact
    .byte D3, 5*fact
    .byte C3, 5*fact
    .byte E3, 6*fact
    .byte C3, 5*fact
    .byte A2, 5*fact
    .byte D2, 6*fact
    .byte A1, 5*fact
    .byte C3, 5*fact
    .byte B3, 5*fact
    .byte D4, 11*fact
    .byte D2, 5*fact
    .byte B2, 5*fact
    .byte G2, 5*fact
    .byte C4, 6*fact
    .byte B4, 11*fact
    .byte A3, 10*fact
    .byte G2, 5*fact
    .byte C2, 5*fact
    .byte G2, 5*fact
    .byte B4, 6*fact
    .byte G3, 5*fact
    .byte D4, 5*fact
    .byte A2, 6*fact
    .byte F_2, 5*fact
    .byte A2, 5*fact
    .byte C4, 5*fact
    .byte A_3, 6*fact
    .byte A3, 5*fact
    .byte G3, 5*fact
    .byte D4, 5*fact
    .byte A2, 6*fact
    .byte F_2, 5*fact
    .byte A3, 5*fact
    .byte C4, 5*fact
    .byte A_3, 6*fact
    .byte A3, 5*fact
    .byte G3, 11*fact
    .byte A2, 4*fact
    .byte F_3, 6*fact
    .byte A2, 5*fact
    .byte C2, 5*fact
    .byte A2, 5*fact
    .byte D3, 6*fact
    .byte A2, 5*fact
    .byte D4, 5*fact
    .byte G2, 5*fact
    .byte D4, 6*fact
    .byte G2, 2*fact
    .byte D4, 3*fact
    .byte E4, 5*fact
    .byte D4, 6*fact
    .byte C4, 5*fact
    .byte B4, 5*fact
    .byte C4, 5*fact
    .byte A2, 5*fact
    .byte C4, 6*fact
    .byte A2, 2*fact
    .byte C4, 9*fact
    .byte A2, 5*fact
    .byte F_2, 5*fact
    .byte A2, 5*fact
    .byte B4, 5*fact
    .byte B3, 5*fact
    .byte A3, 6*fact
    .byte B4, 5*fact
    .byte C4, 5*fact
    .byte B4, 6*fact
    .byte A3, 5*fact
    .byte G3, 5*fact
    .byte A3, 5*fact
    .byte A2, 5*fact
    .byte D3, 6*fact
    .byte A2, 2*fact
    .byte D3, 9*fact
    .byte C2, 4*fact
    .byte B4, 6*fact
    .byte A1, 2*fact
    .byte C4, 3*fact
    .byte D4, 5*fact
    .byte D2, 5*fact
    .byte D4, 6*fact
    .byte D2, 2*fact
    .byte D4, 3*fact
    .byte E4, 5*fact
    .byte D4, 6*fact
    .byte C4, 5*fact
    .byte B4, 5*fact
    .byte C4, 5*fact
    .byte A2, 5*fact
    .byte C4, 6*fact
    .byte A2, 2*fact
    .byte C4, 8*fact
    .byte A2, 6*fact
    .byte F_2, 5*fact
    .byte A2, 5*fact
    .byte B4, 5*fact
    .byte B3, 5*fact
    .byte A3, 6*fact
    .byte B4, 5*fact
    .byte C4, 5*fact
    .byte A3, 6*fact
    .byte G3, 5*fact
    .byte F_3, 11*fact
    .byte D3, 4*fact
    .byte G3, 6*fact
    .byte D3, 5*fact
    .byte B3, 5*fact
    .byte D2, 5*fact
    .byte B3, 6*fact
    .byte D2, 2*fact
    .byte C3, 3*fact
    .byte D3, 5*fact
    .byte D2, 5*fact
    .byte C3, 6*fact
    .byte B3, 5*fact
    .byte D3, 5*fact
    .byte C3, 6*fact
    .byte B3, 5*fact
    .byte A2, 5*fact
    .byte B3, 5*fact
    .byte G3, 11*fact
    .byte D2, 5*fact
    .byte G1, 5*fact
    .byte D2, 5*fact
    .byte B3, 6*fact
    .byte C3, 5*fact
    .byte E3, 5*fact
    .byte D3, 6*fact
    .byte C3, 5*fact
    .byte B3, 5*fact
    .byte C3, 5*fact
    .byte A2, 6*fact
    .byte G2, 5*fact
    .byte F_2, 5*fact
    .byte G2, 5*fact
    .byte D2, 6*fact
    .byte B2, 5*fact
    .byte B3, 5*fact
    .byte D3, 5*fact
    .byte C3, 6*fact
    .byte A2, 5*fact
    .byte F_2, 5*fact
    .byte G2, 5*fact
    .byte D2, 6*fact
    .byte B2, 5*fact
    .byte B3, 2*fact
    .byte D3, 3*fact
    .byte C3, 5*fact
    .byte A2, 6*fact
    .byte G2, 5*fact
    .byte F_2, 11*fact
    .byte D2, 4*fact
    .byte G2, 6*fact
    .byte D2, 5*fact

	.byte $ff,$ff

